<?xml version="1.0" encoding="utf-8" ?>
<svg xmlns="http://www.w3.org/2000/svg" xmlns:xlink="http://www.w3.org/1999/xlink" width="1022" height="1025">
	<path fill="#4C06A1" transform="scale(3.48805 3.48805)" d="M256.121 92.2302C256.767 93.398 257.362 94.5718 257.918 95.7852C257.675 96.5686 257.328 97.0033 256.791 97.5924C256.601 96.82 255.98 95.9542 255.589 95.2475C255.971 94.8754 256.144 94.626 256.323 94.1214C256.196 93.5414 256.132 93.01 256.123 92.4155L256.121 92.2302Z"/>
	<path fill="#06011A" transform="scale(3.48805 3.48805)" d="M108.275 222.915C109.009 223.967 109.806 225.011 110.455 226.117C109.64 225.559 108.642 225.532 107.688 225.413L105.691 223.333C106.32 222.907 107.487 223.063 108.275 222.915Z"/>
	<path fill="#156AE1" transform="scale(3.48805 3.48805)" d="M58.5761 58.7671C59.6278 56.8021 60.898 55.1045 62.2336 53.3247C62.8374 53.6412 63.3298 53.9573 64.033 53.9398C62.9362 55.2014 61.8368 56.4526 60.6854 57.6652C60.012 58.0798 59.3467 58.5641 58.5761 58.7671Z"/>
	<path fill="#158AE1" transform="scale(3.48805 3.48805)" d="M64.5165 50.4194C65.2749 50.3574 65.7337 50.1686 66.385 49.7976L66.5981 49.6747C67.0257 49.6762 67.316 49.7159 67.7236 49.8446L64.033 53.9398C63.3298 53.9573 62.8374 53.6412 62.2336 53.3247C62.9775 52.3439 63.7536 51.3856 64.5165 50.4194Z"/>
	<path fill="#4E0B75" transform="scale(3.48805 3.48805)" d="M253.965 183.841C254.215 184.146 254.377 184.215 254.75 184.333C255.846 183.905 257.295 183.654 258.236 183C258.019 184.228 257.312 186.164 256.205 186.854C255.976 186.997 255.72 187.082 255.463 187.154C254.857 186.955 254.655 186.854 254.359 186.232C254.044 185.568 253.986 184.563 253.965 183.841Z"/>
	<path fill="#4E0B75" transform="scale(3.48805 3.48805)" d="M149.973 253.44C150.522 253.936 150.969 254.399 151 255.181C151.027 255.873 150.597 256.46 150.109 256.907C148.632 258.263 146.6 258.582 144.702 258.843C145.258 258.383 145.711 258.356 146.346 258.084C147.064 257.777 147.105 257.543 147.348 256.853L147.651 256.146C148.427 255.918 148.598 255.669 149.127 255.089C149.19 254.252 149.452 254.065 149.973 253.44Z"/>
	<path fill="#490684" transform="scale(3.48805 3.48805)" d="M257.918 95.7852C259.138 98.6748 260.92 102.406 261.101 105.582C260.937 105.374 260.775 105.144 260.589 104.956C258.819 103.168 258.003 99.8541 256.791 97.5924C257.328 97.0033 257.675 96.5686 257.918 95.7852Z"/>
	<path fill="#17032D" transform="scale(3.48805 3.48805)" d="M107.688 225.413C108.642 225.532 109.64 225.559 110.455 226.117C111.853 227.803 113.218 229.541 114.713 231.141C113.76 231.158 112.971 231.012 112.05 230.772L111.316 230.032C110.013 228.546 108.832 227.025 107.688 225.413Z"/>
	<path fill="#490684" transform="scale(3.48805 3.48805)" d="M146.126 246.621C146.817 246.312 147.199 246.027 147.98 246.276C148.336 246.389 148.712 246.639 149.037 246.824C151.038 247.717 153.05 248.447 155.13 249.133C154.611 249.551 154.043 249.935 153.7 250.516C151.013 249.539 148.397 248.379 146.126 246.621Z"/>
	<path fill="#490684" transform="scale(3.48805 3.48805)" d="M252.927 176.752C255.454 178.642 255.297 181.702 256.559 182.76C257.133 182.825 257.681 182.917 258.253 182.794L258.236 183C257.295 183.654 255.846 183.905 254.75 184.333C254.377 184.215 254.215 184.146 253.965 183.841Q253.416 180.301 252.927 176.752Z"/>
	<path fill="#17032D" transform="scale(3.48805 3.48805)" d="M101.002 217.056C101.542 217.549 102.059 218.069 102.701 218.428C103.344 218.241 103.606 217.839 104.145 217.511C105.477 219.317 107.037 221.06 108.275 222.915C107.487 223.063 106.32 222.907 105.691 223.333C103.918 221.806 102.502 219.457 101.004 217.624L101.002 217.056Z"/>
	<path fill="#2F96C4" transform="scale(3.48805 3.48805)" d="M92.0557 161.821C92.6535 161.461 93.0008 161.152 93.7355 161.324C94.4685 161.495 95.3251 162.207 95.9396 162.639C97.6799 163.894 99.5252 165.013 101.365 166.116C100.697 166.191 100.441 166.243 99.9544 166.763C99.8301 166.897 99.8095 166.945 99.7276 167.084C96.9158 165.597 94.4931 163.859 92.0557 161.821Z"/>
	<path fill="#490684" transform="scale(3.48805 3.48805)" d="M26.0219 149.352L26.1881 149.333L26.3085 149.577C26.3347 153.458 26.1997 159.228 26.9813 162.871L27.1009 163.624C26.1603 164.596 26.0392 165.233 25.9949 166.561C24.1816 161.167 25.4231 154.837 26.0219 149.352Z"/>
	<path fill="#8609AD" transform="scale(3.48805 3.48805)" d="M26.3085 149.577C26.6869 149.603 27.4971 149.553 27.7331 149.823C28.6554 150.882 29.1144 158.491 29.3767 160.259C28.9084 159.58 28.5362 158.989 27.7967 158.572C27.601 158.655 27.3939 158.669 27.3104 158.874C26.8544 159.998 27.0393 161.65 26.9813 162.871C26.1997 159.228 26.3347 153.458 26.3085 149.577Z"/>
	<path fill="#490684" transform="scale(3.48805 3.48805)" d="M140.114 258.127C140.89 258.248 141.455 258.832 142.239 258.739C142.532 258.183 142.773 257.8 143.272 257.41C144.303 257.147 144.566 257.434 145.51 257.56C146.322 257.668 146.707 257.269 147.348 256.853C147.105 257.543 147.064 257.777 146.346 258.084C145.711 258.356 145.258 258.383 144.702 258.843C142.757 259.151 140.834 259.612 138.876 259.829C134.553 260.307 125.183 260.514 121.142 259.48C125.13 259.205 129.326 259.999 133.229 259.377C135.541 259.112 137.841 258.622 140.114 258.127Z"/>
	<path fill="#2F96C4" transform="scale(3.48805 3.48805)" d="M101.365 166.116C105.126 167.473 112.057 171.172 115.707 171.038L115.115 171.437L115.038 172.187L114.82 172.362C110.628 171.622 103.541 168.95 99.7276 167.084C99.8095 166.945 99.8301 166.897 99.9544 166.763C100.441 166.243 100.697 166.191 101.365 166.116Z"/>
	<path fill="#490684" transform="scale(3.48805 3.48805)" d="M265.226 128.168C266.744 133.965 266.029 146.844 264.74 152.633C264.606 151.521 264.72 150.39 264.657 149.27C264.51 146.682 264.205 144.082 264.274 141.488C264.391 137.099 265.041 132.623 265.226 128.168Z"/>
	<path fill="#4C06A1" transform="scale(3.48805 3.48805)" d="M256.559 182.76C256.883 181.931 257.426 181.184 257.737 180.343C258.732 177.662 259.716 174.379 260.344 171.605C260.688 170.09 260.425 168.37 260.974 166.908C261.341 165.931 262.359 164.917 263.028 164.112C262.296 169.39 260.294 177.975 258.253 182.794C257.681 182.917 257.133 182.825 256.559 182.76Z"/>
	<path fill="#06011A" transform="scale(3.48805 3.48805)" d="M34.1097 105.836C35.0316 103.43 35.4997 99.9401 36.602 97.8898C36.9775 97.1913 37.5038 96.651 38.2917 96.4515C39.9663 96.0273 41.5341 97.1622 42.9497 97.9209L43.3564 98.7484C43.2413 98.9037 43.1869 99.0792 42.9865 99.1102C41.1574 99.393 40.1742 97.013 38.1901 97.9449L37.5965 98.8299L37.792 99.0151L38.732 98.6756C38.9984 98.8546 39.1171 98.8728 39.2474 99.1757C38.8891 99.2724 38.6401 99.2448 38.4406 99.5812C37.818 100.631 37.8469 102.841 37.739 104.099L37.1413 104.807L37.0532 104.582C36.9378 104.291 36.7967 104.022 36.6505 103.746C35.9757 103.708 35.8947 103.756 35.3083 104.103L35.2119 104.347C34.9424 105.017 34.7588 105.447 34.1097 105.836Z"/>
	<path fill="#158AE1" transform="scale(3.48805 3.48805)" d="M163.287 202.721C163.679 203 164.164 203.322 164.422 203.738C164.754 204.271 166.259 209.127 166.393 209.96C166.43 210.195 166.455 210.428 166.472 210.665C167.395 214.121 168.555 219.081 168.248 222.615C166.986 216.81 164.638 210.841 162.473 205.308C162.486 205.195 162.504 205.082 162.515 204.969C162.615 203.999 162.693 203.523 163.287 202.721Z"/>
	<path fill="#30849B" transform="scale(3.48805 3.48805)" d="M114.82 172.362L115.038 172.187L115.115 171.437L115.707 171.038C119.866 172.931 125.106 173.323 129.514 174.657C131.943 175.391 134.245 176.799 136.644 177.445C136.635 177.943 136.577 178.488 136.628 178.981C132.261 177.133 127.852 175.748 123.261 174.582C120.485 173.877 117.491 173.385 114.82 172.362Z"/>
	<path fill="#230253" transform="scale(3.48805 3.48805)" d="M51.0897 75.4673C50.5949 79.2024 50.3216 82.5962 50.9716 86.3482C51.0677 89.2897 51.3952 92.216 51.5141 95.1531C51.3144 94.5658 51.261 93.9629 50.7263 93.6267C49.9754 97.1464 49.9238 98.2766 46.7147 100.444C46.294 100.728 45.9425 100.661 45.4815 100.534C45.1512 100.443 44.9461 100.267 44.7059 100.035L44.7196 100.145L44.8675 99.4867L45.5923 99.5221L45.836 99.2102C46.7968 98.183 47.8882 97.2852 48.9505 96.366C48.8914 90.8391 48.8788 80.5242 51.0897 75.4673Z"/>
	<path fill="#8609AD" transform="scale(3.48805 3.48805)" d="M243.648 72.892C247.909 77.6241 250.941 82.4548 253.972 88.0235C254.683 89.329 255.676 90.8248 256.121 92.2302L256.123 92.4155C256.132 93.01 256.196 93.5414 256.323 94.1214C256.144 94.626 255.971 94.8754 255.589 95.2475C254.027 93.5613 250.02 84.4102 248.33 81.6131C246.986 79.3894 244.25 77.203 243.397 74.841L243.611 74.7886L244.193 75.2366L244.389 75.2105L243.9 74.263L243.648 72.892Z"/>
	<path fill="#4E0B75" transform="scale(3.48805 3.48805)" d="M133.155 35.7986C132.712 40.8604 127.384 44.571 124.394 48.313C123.363 49.6021 122.633 51.2687 121.874 52.7314C120.796 53.4249 119.674 54.011 118.666 54.8075C118.873 54.2576 119.03 53.7035 119.182 53.1365C118.483 53.6241 118.156 54.0742 117.293 53.9712C117.451 52.7483 117.682 51.5561 117.94 50.3506C117.894 51.2936 117.894 52.1635 118.03 53.0989L118.36 53.1476C119.542 51.6713 120.433 50.0144 121.673 48.5562C125.376 44.1998 129.553 40.2222 133.155 35.7986Z"/>
	<path fill="#2F96C4" transform="scale(3.48805 3.48805)" d="M145.243 183.653C146.546 183.535 148.408 184.196 149.545 184.85L156.469 191.423C157.129 192.48 157.704 193.926 158.65 194.73C159.959 197.125 161.77 199.566 162.847 202.023C162.967 202.297 163.101 202.491 163.287 202.721C162.693 203.523 162.615 203.999 162.515 204.969C162.504 205.082 162.486 205.195 162.473 205.308C161.049 202.35 159.35 199.514 157.594 196.742C157.328 196.345 157.092 195.932 156.852 195.519C153.689 190.925 149.915 186.748 145.243 183.653Z"/>
	<path fill="#4E0B75" transform="scale(3.48805 3.48805)" d="M168.472 224.596C169.364 227.378 170.759 240.111 170.537 243.34L170.215 244.463C169.961 245.991 169.993 247.557 169.968 249.102C169.63 247.611 169.753 246.078 169.801 244.562C168.424 247.444 167.006 250.588 163.738 251.71C160.482 252.827 156.839 251.434 153.7 250.516C154.043 249.935 154.611 249.551 155.13 249.133C157.502 250.172 160.241 250.784 162.788 250.102C164.792 249.566 166.209 248.322 167.218 246.536C169.756 242.044 169.142 238.277 167.852 233.571L167.96 233.316L168.58 233.828L168.953 233.762C169.744 231.733 168.606 226.964 168.472 224.596Z"/>
	<path fill="#8609AD" transform="scale(3.48805 3.48805)" d="M94.7175 252.852C95.5676 252.737 96.2423 252.401 97.0049 252.03C101.352 253.812 105.849 255.121 110.417 256.198Q112.695 256.595 114.955 257.085C116.583 257.312 121.614 258.541 122.928 258.052C124.695 257.999 131.224 257.843 132.415 258.778C132.679 258.985 132.959 259.177 133.229 259.377C129.326 259.999 125.13 259.205 121.142 259.48C118.537 258.962 115.874 258.971 113.284 258.335L110.336 257.856C105.048 256.568 99.741 254.962 94.7175 252.852Z"/>
	<path transform="scale(3.48805 3.48805)" d="M89.9 197.987C92.8978 201.583 96.4523 205.081 99.103 208.916C100.993 211.65 102.207 214.803 104.145 217.511C103.606 217.839 103.344 218.241 102.701 218.428C102.059 218.069 101.542 217.549 101.002 217.056C97.6483 213.093 94.0365 208.64 91.7247 203.973C91.1302 202.023 89.7328 200.101 89.9 197.987Z"/>
	<path fill="#230253" transform="scale(3.48805 3.48805)" d="M124.689 88.5944C126.155 89.9149 126.857 91.9202 128.029 93.4913C130.994 97.4667 137.258 103.878 142.035 105.43C143.333 105.98 144.619 106.48 145.962 106.916C147.527 107.377 149.075 107.79 150.674 108.116C152.56 108.334 153.9 109.721 155.716 109.742C155.885 109.744 156.054 109.764 156.222 109.775C156.345 109.784 156.469 109.79 156.592 109.797C152.287 110.624 148.049 109.301 143.935 108.159C141.896 107.49 140.072 106.608 138.343 105.329C136.348 103.854 128.446 95.4387 127.146 95.1983C126.914 95.6699 126.939 95.8258 127.124 96.3318C128.774 100.846 133.078 104.508 136.634 107.519C137.642 108.373 138.918 109.217 139.764 110.22C137.821 109.423 136.747 107.632 134.526 107.683C131.961 106.246 129.52 101.494 127.642 99.226C126.855 98.9446 126.3 98.6516 125.665 98.1006L125.484 97.9419C125.806 97.6713 126.065 97.4041 126.332 97.0781C126.954 96.3169 125.315 92.4055 125.074 91.3556C124.868 90.4575 124.781 89.5108 124.689 88.5944Z"/>
	<path fill="#1FBCC1" transform="scale(3.48805 3.48805)" d="M157.814 122.427C155.21 121.472 152.661 120.137 150.123 119.006C142.341 115.537 136.678 112.96 130.523 106.752C128.715 104.928 125.06 101.092 125.124 98.4111C125.13 98.1739 125.318 98.0964 125.484 97.9419L125.665 98.1006C126.3 98.6516 126.855 98.9446 127.642 99.226C129.52 101.494 131.961 106.246 134.526 107.683C136.747 107.632 137.821 109.423 139.764 110.22C141.468 111.104 143.163 112.021 144.889 112.858C145.463 113.138 146.343 113.431 146.808 113.845Q149.785 114.921 152.789 115.918C156.152 116.924 164.108 117.804 166.557 119.256C162.515 119.711 158.376 119.17 154.389 118.397C152.9 118.108 150.924 117.297 149.422 117.466L149.4 117.722C151.777 119.502 156.036 120.048 157.814 122.427Z"/>
	<path fill="#2F96C4" transform="scale(3.48805 3.48805)" d="M146.808 113.845Q149.785 114.921 152.789 115.918C152.325 116.353 151.909 116.671 151.27 116.799C150.224 117.01 149.034 116.687 148.18 116.069C147.415 115.515 146.964 114.783 146.808 113.845Z"/>
	<path fill="#29AFC5" transform="scale(3.48805 3.48805)" d="M134.526 107.683C136.747 107.632 137.821 109.423 139.764 110.22C141.468 111.104 143.163 112.021 144.889 112.858C144.442 113.345 144.064 113.708 143.475 114.014C143.254 113.951 143.041 113.879 142.827 113.795C141.015 113.08 135.258 109.355 134.526 107.683Z"/>
	<path fill="#7103DB" transform="scale(3.48805 3.48805)" d="M154.799 244.452C157.391 242.627 162.6 240.072 163.519 236.968C163.901 235.675 163.782 233.719 164.444 232.605C164.646 232.264 164.783 232.296 165.159 232.187C166.17 232.819 166.191 234.103 167.123 234.814C167.631 234.543 167.664 234.094 167.852 233.571C169.142 238.277 169.756 242.044 167.218 246.536C166.209 248.322 164.792 249.566 162.788 250.102C160.241 250.784 157.502 250.172 155.13 249.133C153.05 248.447 151.038 247.717 149.037 246.824C149.05 245.881 148.463 246.023 148.244 245.157C149.305 244.108 153.256 244.463 154.799 244.452Z"/>
	<defs>
		<linearGradient id="gradient_0" gradientUnits="userSpaceOnUse" x1="92.628014" y1="51.332592" x2="93.973534" y2="29.331045">
			<stop offset="0" stop-color="#3271BD"/>
			<stop offset="1" stop-color="#19A9D5"/>
		</linearGradient>
	</defs>
	<path fill="url(#gradient_0)" transform="scale(3.48805 3.48805)" d="M64.5165 50.4194C66.7761 46.6976 73.2817 41.1874 76.9723 38.7813C85.6147 33.1468 101.408 27.9607 111.73 30.2193C114.334 30.7892 117.903 32.2097 119.361 34.6067C121.396 37.952 119.556 44.0126 118.628 47.5334C118.242 47.4296 117.746 47.3318 117.424 47.0866C116.958 46.7319 116.974 46.1415 116.872 45.5981C117.368 42.9817 118.641 38.4024 117.011 36.0821C115.581 34.0466 113.092 33.1874 110.732 32.8195C100.672 31.2514 83.9313 36.272 75.7213 42.3815C72.9655 44.4322 70.0905 48.3084 67.7236 49.8446C67.316 49.7159 67.0257 49.6762 66.5981 49.6747L66.385 49.7976C65.7337 50.1686 65.2749 50.3574 64.5165 50.4194Z"/>
	<path transform="scale(3.48805 3.48805)" d="M45.836 99.2102L45.5923 99.5221L44.8675 99.4867L44.7196 100.145L44.7059 100.035C44.9461 100.267 45.1512 100.443 45.4815 100.534C45.9425 100.661 46.294 100.728 46.7147 100.444C49.9238 98.2766 49.9754 97.1464 50.7263 93.6267C51.261 93.9629 51.3144 94.5658 51.5141 95.1531C52.4045 102.098 53.7976 108.403 56.1291 115.008C56.5232 116.124 57.3942 117.811 57.3957 118.978C55.4825 117.027 51.7031 101.233 50.6385 97.6849C49.4909 99.598 48.3442 101.222 46.6516 102.715C45.1727 101.955 43.5779 100.932 41.9503 100.567L41.5461 100.703C40.524 106.396 50.3976 130.863 53.2791 136.561C56.3444 142.624 60.9193 150.095 64.8124 155.664C65.9109 157.236 67.4747 158.477 68.5238 160.077C70.4381 162.997 71.4663 166.536 73.1906 169.58C75.2069 173.141 77.33 176.715 79.4547 180.213C80.9426 182.662 82.6018 185.026 83.7038 187.687C76.3216 184.486 69.7784 164.682 63.8339 157.968C63.2258 156.419 62.1957 154.835 61.3903 153.37C58.6978 148.471 55.6358 143.752 53.1014 138.772C51.2928 135.218 49.9934 131.386 48.4916 127.693C46.1068 121.83 43.617 116.007 41.3608 110.092C41.0331 108.004 40.2956 105.903 39.8464 103.824C39.5157 102.294 39.4387 100.728 39.2474 99.1757C39.1171 98.8728 38.9984 98.8546 38.732 98.6756L37.792 99.0151L37.5965 98.8299L38.1901 97.9449C40.1742 97.013 41.1574 99.393 42.9865 99.1102C43.1869 99.0792 43.2413 98.9037 43.3564 98.7484L42.9497 97.9209C43.7225 98.5305 44.5284 99.3769 45.5889 99.2488C45.6717 99.2388 45.7536 99.2231 45.836 99.2102Z"/>
	<defs>
		<linearGradient id="gradient_1" gradientUnits="userSpaceOnUse" x1="78.471367" y1="203.20399" x2="58.116028" y2="226.33025">
			<stop offset="0" stop-color="#B403D3"/>
			<stop offset="1" stop-color="#F102E7"/>
		</linearGradient>
	</defs>
	<path fill="url(#gradient_1)" transform="scale(3.48805 3.48805)" d="M26.9813 162.871C27.0393 161.65 26.8544 159.998 27.3104 158.874C27.3939 158.669 27.601 158.655 27.7967 158.572C28.5362 158.989 28.9084 159.58 29.3767 160.259C30.8042 170.701 33.8833 180.741 39.2785 189.833C40.2871 190.607 41.5904 191.433 42.376 192.43C44.9088 195.646 44.9588 201.711 49.3817 205.696L49.3298 205.922C49.6188 206.413 49.93 206.973 50.3248 207.385C51.4781 208.589 55.2607 210.072 54.7787 212.35C54.6833 212.801 54.489 213.257 54.323 213.686L54.5011 213.862C56.5902 215.951 58.2758 218.578 60.1924 220.843C62.9558 224.109 66.2294 226.604 69.4559 229.382C70.3728 230.172 71.1616 231.182 72.1364 231.884C73.7278 233.031 74.9705 234.873 76.4193 236.215L77.0054 235.776C77.054 235.819 77.1021 235.862 77.1512 235.905C77.2838 236.02 77.4199 236.133 77.5546 236.245C78.9609 237.416 82.5109 238.424 83.1443 240.074C82.7243 240.293 82.5028 240.312 82.0286 240.307C83.9473 241.126 85.9407 241.899 87.7835 242.878C90.1592 244.14 92.4196 245.651 94.9455 246.607C97.9169 247.732 100.99 248.61 103.985 249.674C107.601 250.96 111.155 252.444 114.793 253.661C118.083 254.761 121.449 255.494 124.63 256.908C123.864 256.959 123.092 257.034 122.325 257.047L122.113 257.508L121.955 257.34C122.112 257.685 122.213 257.811 122.529 258.018L122.928 258.052C121.614 258.541 116.583 257.312 114.955 257.085Q112.695 256.595 110.417 256.198C105.849 255.121 101.352 253.812 97.0049 252.03C96.2423 252.401 95.5676 252.737 94.7175 252.852C90.3145 250.994 86.2516 249.233 82.2127 246.648C76.0983 243.1 70.0408 239.358 64.9341 234.412C60.6907 230.393 56.5742 226.174 52.5415 221.943C49.1872 217.874 46.196 213.457 43.0058 209.252C41.2791 207.017 39.9111 204.491 38.5322 202.035C35.8408 197.443 33.5923 192.712 31.6151 187.775C30.5362 185.352 29.6318 182.905 29.0366 180.317C27.6544 176.001 26.3111 171.208 26.0043 166.674L25.9949 166.561C26.0392 165.233 26.1603 164.596 27.1009 163.624L26.9813 162.871Z"/>
	<path fill="#8609AD" transform="scale(3.48805 3.48805)" d="M27.1009 163.624C27.8518 165.348 27.8717 167.428 28.0525 169.292L27.6206 168.248C26.9581 167.788 26.3602 167.431 26.0043 166.674L25.9949 166.561C26.0392 165.233 26.1603 164.596 27.1009 163.624Z"/>
	<path fill="#D405DD" transform="scale(3.48805 3.48805)" d="M41.6265 194.515C43.3211 196.757 44.5688 199.325 45.8668 201.811C45.0279 201.224 44.0873 200.241 43.36 199.495C41.9262 198.025 41.5842 196.502 41.6265 194.515Z"/>
	<path fill="#4C06A1" transform="scale(3.48805 3.48805)" d="M30.0992 177.312C30.889 180.627 31.8997 183.792 32.9966 187.017L31.6151 187.775C30.5362 185.352 29.6318 182.905 29.0366 180.317Q29.0318 179.909 29.036 179.501C29.0507 178.326 29.3045 178.085 30.0992 177.312Z"/>
	<path fill="#490684" transform="scale(3.48805 3.48805)" d="M26.0043 166.674C26.3602 167.431 26.9581 167.788 27.6206 168.248L28.0525 169.292C28.6575 171.981 29.5389 174.622 30.0992 177.312C29.3045 178.085 29.0507 178.326 29.036 179.501Q29.0318 179.909 29.0366 180.317C27.6544 176.001 26.3111 171.208 26.0043 166.674Z"/>
	<path fill="#D405DD" transform="scale(3.48805 3.48805)" d="M50.8723 217.467C52.4906 219.035 53.4857 221.332 54.9065 222.758C55.983 223.839 57.5262 224.432 58.6345 225.501C60.999 227.78 64.3445 231.783 66.5683 234.33L64.9341 234.412C60.6907 230.393 56.5742 226.174 52.5415 221.943C52.7995 219.664 51.9476 220.557 51.1502 219.015C50.9755 218.677 50.9447 217.87 50.8723 217.467Z"/>
	<path fill="#8609AD" transform="scale(3.48805 3.48805)" d="M66.5683 234.33C71.4314 239.17 78.2563 242.586 84.0905 246.127C85.5115 247.037 95.4883 251.578 97.0049 252.03C96.2423 252.401 95.5676 252.737 94.7175 252.852C90.3145 250.994 86.2516 249.233 82.2127 246.648C76.0983 243.1 70.0408 239.358 64.9341 234.412L66.5683 234.33Z"/>
	<path fill="#8609AD" transform="scale(3.48805 3.48805)" d="M39.2785 189.833C40.2871 190.607 41.5904 191.433 42.376 192.43C44.9088 195.646 44.9588 201.711 49.3817 205.696L49.3298 205.922C49.6188 206.413 49.93 206.973 50.3248 207.385C51.4781 208.589 55.2607 210.072 54.7787 212.35C54.6833 212.801 54.489 213.257 54.323 213.686L54.5011 213.862C56.5902 215.951 58.2758 218.578 60.1924 220.843C62.9558 224.109 66.2294 226.604 69.4559 229.382C70.3728 230.172 71.1616 231.182 72.1364 231.884C73.7278 233.031 74.9705 234.873 76.4193 236.215L77.0054 235.776C77.054 235.819 77.1021 235.862 77.1512 235.905C77.2838 236.02 77.4199 236.133 77.5546 236.245C78.9609 237.416 82.5109 238.424 83.1443 240.074C82.7243 240.293 82.5028 240.312 82.0286 240.307C77.0717 238.161 74.7299 235.048 70.8828 231.453C68.255 228.997 65.4229 226.771 62.8317 224.271C57.3069 218.941 52.8508 212.652 48.8599 206.133C47.8184 204.731 46.859 203.249 45.8668 201.811C44.5688 199.325 43.3211 196.757 41.6265 194.515C40.7846 192.988 40.0466 191.398 39.2785 189.833Z"/>
	<path fill="#4C06A1" transform="scale(3.48805 3.48805)" d="M31.6151 187.775L32.9966 187.017C34.2103 190.372 38.3331 198.235 40.3018 201.484Q42.0861 204.548 43.9728 207.55C45.5274 209.673 48.395 215.271 49.5862 216.572C49.9351 216.953 50.4197 217.229 50.8723 217.467C50.9447 217.87 50.9755 218.677 51.1502 219.015C51.9476 220.557 52.7995 219.664 52.5415 221.943C49.1872 217.874 46.196 213.457 43.0058 209.252C41.2791 207.017 39.9111 204.491 38.5322 202.035C35.8408 197.443 33.5923 192.712 31.6151 187.775Z"/>
	<defs>
		<linearGradient id="gradient_2" gradientUnits="userSpaceOnUse" x1="181.15848" y1="247.75697" x2="190.26596" y2="232.55293">
			<stop offset="0" stop-color="#0026FF"/>
			<stop offset="1" stop-color="#0383FE"/>
		</linearGradient>
	</defs>
	<path fill="url(#gradient_2)" transform="scale(3.48805 3.48805)" d="M166.472 210.665L166.616 210.856C167.668 212.271 168.696 218.041 169.239 220.085C168.935 221.051 168.6 221.701 169.072 222.661L169.506 222.918L170.134 222.335C173.633 222.989 180.771 228.025 182.728 227.935L182.514 227.316C183.279 227.241 190.183 232.049 191.241 232.916Q191.55 233.169 191.854 233.428L191.703 233.39C194.716 235.994 202.589 242.201 206.137 243.438C208.029 244.097 208.18 247.443 210.075 246.581C213.649 244.955 219.026 237.292 221.199 236.542C218.218 241.026 214.19 244.355 209.921 247.563C208.902 248.328 207.708 249.384 206.545 249.901C204.79 251.224 202.868 252.294 200.873 253.21C198.217 254.436 195.551 255.747 192.696 256.44C191.973 256.722 191.355 256.895 190.583 257.003C187.397 257.701 184.209 258.305 180.935 257.915C177.379 257.491 174.482 255.994 172.248 253.192C171.374 251.996 170.19 250.599 169.968 249.102C169.993 247.557 169.961 245.991 170.215 244.463L170.537 243.34C170.759 240.111 169.364 227.378 168.472 224.596L168.248 222.615C168.555 219.081 167.395 214.121 166.472 210.665Z"/>
	<path fill="#156AE1" transform="scale(3.48805 3.48805)" d="M200.873 253.21C200.87 252.97 200.864 252.726 200.886 252.487C200.969 251.593 201.546 251.027 202.224 250.474C202.988 249.852 203.81 249.418 204.827 249.511L204.061 250.188L203.635 249.822L204.104 250.4C204.92 250.298 205.69 249.986 206.545 249.901C204.79 251.224 202.868 252.294 200.873 253.21Z"/>
	<path fill="#0D01FB" transform="scale(3.48805 3.48805)" d="M170.537 243.34L171.121 243.302C171.544 242.677 171.404 241.927 171.373 241.204C172.563 241.013 174.336 241.822 175.392 242.348C178.45 243.871 181.215 246.087 184.123 247.886C186.553 249.389 189.253 250.582 191.545 252.283C192.001 252.621 192.408 253.009 192.797 253.421C192.871 254.209 192.572 254.558 193.182 255.139L194.357 255.161C193.747 255.603 192.678 255.422 192.478 256.038L192.696 256.44C191.973 256.722 191.355 256.895 190.583 257.003C187.397 257.701 184.209 258.305 180.935 257.915C177.379 257.491 174.482 255.994 172.248 253.192C171.374 251.996 170.19 250.599 169.968 249.102C169.993 247.557 169.961 245.991 170.215 244.463L170.537 243.34Z"/>
	<path fill="#7103DB" transform="scale(3.48805 3.48805)" d="M170.215 244.463C170.277 245.121 170.352 245.443 170.761 245.958C172.361 247.974 171.921 250.79 174.06 253.028C176.292 255.487 180.567 256.317 183.753 256.476C186.018 256.588 188.354 256.946 190.583 257.003C187.397 257.701 184.209 258.305 180.935 257.915C177.379 257.491 174.482 255.994 172.248 253.192C171.374 251.996 170.19 250.599 169.968 249.102C169.993 247.557 169.961 245.991 170.215 244.463Z"/>
	<path fill="#490684" transform="scale(3.48805 3.48805)" d="M37.739 104.099C37.8469 102.841 37.818 100.631 38.4406 99.5812C38.6401 99.2448 38.8891 99.2724 39.2474 99.1757C39.4387 100.728 39.5157 102.294 39.8464 103.824C40.2956 105.903 41.0331 108.004 41.3608 110.092C43.617 116.007 46.1068 121.83 48.4916 127.693C49.9934 131.386 51.2928 135.218 53.1014 138.772C55.6358 143.752 58.6978 148.471 61.3903 153.37C62.1957 154.835 63.2258 156.419 63.8339 157.968C69.7784 164.682 76.3216 184.486 83.7038 187.687Q84.7343 189.076 85.7227 190.496C86.7903 192.158 87.7526 193.829 88.6529 195.586L89.9 197.987C89.7328 200.101 91.1302 202.023 91.7247 203.973C94.0365 208.64 97.6483 213.093 101.002 217.056L101.004 217.624C102.502 219.457 103.918 221.806 105.691 223.333L107.688 225.413C108.832 227.025 110.013 228.546 111.316 230.032L112.05 230.772C112.971 231.012 113.76 231.158 114.713 231.141L119.47 236.18C121.541 237.869 123.557 239.599 125.73 241.16C127.536 242.457 129.638 243.637 131.279 245.122C134.447 246.597 137.391 248.691 140.543 250.263L140.668 250.291C143.69 251.372 146.863 252.663 149.973 253.44C149.452 254.065 149.19 254.252 149.127 255.089C148.037 254.246 146.63 254.276 145.317 254.229Q144.159 254.205 143.053 253.859C140.868 253.182 126.937 247.648 125.604 246.624C119.559 243.903 113.668 238.968 108.643 234.707C109.082 235.508 109.617 236.276 110.109 237.047L109.8 237.16C104.145 235.552 105.315 233.099 102.15 229.957C101.185 228.999 99.3208 229.349 98.2326 228.437C95.5551 226.193 95.1964 223.731 93.5909 221.967C93.2596 221.603 92.5419 221.337 92.1264 220.934L92.131 220.69C92.1321 220.581 92.1265 220.471 92.1316 220.362C92.1614 219.727 92.0001 219.348 91.619 218.837C90.9148 217.892 90.0816 217.825 89.3267 217.141C87.3102 215.315 85.4452 212.058 84.1313 209.663C82.9407 207.494 81.088 205.505 80.1006 203.279C79.403 201.707 79.9344 200.63 78.8843 198.731C77.8704 196.897 76.8912 194.947 75.7484 193.198C74.7976 191.743 73.5202 190.357 72.7889 188.78C71.8845 186.83 71.6109 184.645 70.7904 182.667C69.8507 180.402 68.4558 178.252 67.3137 176.078C65.5678 172.757 64.1757 169.193 61.8844 166.192C60.2971 162.425 58.2504 158.84 56.6756 155.063C55.3864 151.972 54.0797 148.835 52.8684 145.714C52.2391 144.092 51.7271 142.387 50.9838 140.815C49.5298 137.739 47.4681 134.785 45.7503 131.843C44.7875 130.195 43.9912 128.292 42.9128 126.739C42.3704 125.957 41.6144 124.951 40.7257 124.543C40.2122 124.308 40.1285 124.359 39.6077 124.556C39.0034 125.46 39.0096 126.831 38.7173 127.893C37.5124 122.865 37.7643 111.87 37.7941 106.541L37.739 104.099Z"/>
	<path fill="#230253" transform="scale(3.48805 3.48805)" d="M37.739 104.099C37.8469 102.841 37.818 100.631 38.4406 99.5812C38.6401 99.2448 38.8891 99.2724 39.2474 99.1757C39.4387 100.728 39.5157 102.294 39.8464 103.824C40.2956 105.903 41.0331 108.004 41.3608 110.092C39.8913 107.996 39.6799 105.076 38.2083 102.816C38.1343 104.071 38.0862 105.313 37.7941 106.541L37.739 104.099Z"/>
	<path fill="#230253" transform="scale(3.48805 3.48805)" d="M111.316 230.032L112.05 230.772C112.971 231.012 113.76 231.158 114.713 231.141L119.47 236.18C121.541 237.869 123.557 239.599 125.73 241.16C127.536 242.457 129.638 243.637 131.279 245.122C128.079 244.757 122.829 239.928 121.926 239.933C121.392 239.937 120.887 239.834 120.379 239.628C116.708 238.141 112.811 233.7 111.316 230.032Z"/>
	<path fill="#37094E" transform="scale(3.48805 3.48805)" d="M112.05 230.772C112.971 231.012 113.76 231.158 114.713 231.141L119.47 236.18C119.43 236.175 119.391 236.171 119.352 236.166C115.917 235.662 114.037 233.37 112.05 230.772Z"/>
	<path fill="#230253" transform="scale(3.48805 3.48805)" d="M63.8339 157.968C69.7784 164.682 76.3216 184.486 83.7038 187.687Q84.7343 189.076 85.7227 190.496C86.7903 192.158 87.7526 193.829 88.6529 195.586L89.9 197.987C89.7328 200.101 91.1302 202.023 91.7247 203.973C94.0365 208.64 97.6483 213.093 101.002 217.056L101.004 217.624C99.1377 215.709 96.9522 213.807 95.3231 211.689C93.9585 209.915 92.9148 207.758 91.755 205.838C89.1873 201.589 86.4525 197.294 84.3222 192.802C83.6773 191.443 82.2257 190.948 81.4794 189.72C81.1239 189.135 80.9757 188.429 80.6602 187.818C79.8308 186.212 78.8599 184.646 77.9007 183.114C76.509 180.891 74.6993 178.887 73.4285 176.602C72.0987 174.21 71.27 171.567 69.9453 169.151C67.9206 165.459 65.4829 161.846 63.8339 157.968Z"/>
	<path fill="#17032D" transform="scale(3.48805 3.48805)" d="M87.9203 197.854C87.648 197.355 87.4265 196.863 87.2258 196.331C87.5928 195.712 87.993 195.755 88.6529 195.586L89.9 197.987C89.7328 200.101 91.1302 202.023 91.7247 203.973C90.3023 202.14 89.1673 199.829 87.9203 197.854Z"/>
	<path fill="#490684" transform="scale(3.48805 3.48805)" d="M34.1097 105.836C34.7588 105.447 34.9424 105.017 35.2119 104.347L35.3083 104.103C35.8947 103.756 35.9757 103.708 36.6505 103.746C36.7967 104.022 36.9378 104.291 37.0532 104.582L37.1413 104.807L37.739 104.099L37.7941 106.541C37.7643 111.87 37.5124 122.865 38.7173 127.893C39.9543 141.349 41.9301 154.293 45.8567 167.263C46.7087 168.981 47.0416 171.004 47.6677 172.822C49.6633 178.614 51.5162 184.671 54.0013 190.265C57.0156 197.051 61.1674 203.32 64.6086 209.903C65.2405 211.112 66.4464 212.862 66.6904 214.168C65.5891 213.549 66.1752 212.532 64.2402 212.583C63.7103 213.008 63.4088 213.447 63.0609 214.027C62.0817 214.146 61.0653 213.188 60.3303 212.613C59.3009 211.806 58.2886 210.903 57.1681 210.232C56.2094 209.657 55.187 209.287 54.2511 208.662C52.7866 207.684 50.9751 205.991 49.3823 205.349L49.3817 205.696C44.9588 201.711 44.9088 195.646 42.376 192.43C41.5904 191.433 40.2871 190.607 39.2785 189.833C33.8833 180.741 30.8042 170.701 29.3767 160.259C29.1144 158.491 28.6554 150.882 27.7331 149.823C27.4971 149.553 26.6869 149.603 26.3085 149.577L26.1881 149.333L26.0219 149.352C25.9445 144.277 26.4944 139.578 27.0766 134.559C28.2508 124.438 29.6154 115.132 34.1097 105.836Z"/>
	<path fill="#230253" transform="scale(3.48805 3.48805)" d="M34.1097 105.836C34.7588 105.447 34.9424 105.017 35.2119 104.347L35.3083 104.103C35.8947 103.756 35.9757 103.708 36.6505 103.746C36.7967 104.022 36.9378 104.291 37.0532 104.582L37.1413 104.807L37.739 104.099L37.7941 106.541C37.7643 111.87 37.5124 122.865 38.7173 127.893C39.9543 141.349 41.9301 154.293 45.8567 167.263L45.756 167.484L45.5502 167.533C45.3045 166.727 45.1628 165.698 44.5382 165.138Q44.1181 165.279 43.6884 165.388C41.9262 165.826 40.9818 165.082 39.5275 164.192C39.5768 164.303 39.6257 164.414 39.67 164.527C39.8944 165.099 40.1392 166.064 39.8913 166.643C39.875 166.589 39.8579 166.535 39.8425 166.481C38.4445 161.57 36.0809 157.071 34.5548 152.221C33.6404 149.315 33.223 146.299 32.5009 143.348C32.135 141.853 31.4137 140.471 31.0391 138.985C30.7767 137.945 30.9365 136.824 30.6158 135.8C30.4613 135.306 30.224 134.972 29.8648 134.606C29.162 134.435 28.6754 134.086 28.0957 133.679L27.8598 133.94C28.5573 136.223 26.8334 140.156 26.5162 142.573C26.2261 144.784 26.3593 147.098 26.1881 149.333L26.0219 149.352C25.9445 144.277 26.4944 139.578 27.0766 134.559C28.2508 124.438 29.6154 115.132 34.1097 105.836Z"/>
	<path fill="#0D01FB" transform="scale(3.48805 3.48805)" d="M123.633 200.657C126.152 200.085 128.134 200.032 130.684 200.595C136.434 201.77 145.851 206.677 149.766 211.173C152.06 213.179 154.133 215.465 156.28 217.629C158.046 219.491 159.917 221.482 161.421 223.567L162.592 225.219C164.292 227.414 167.167 230.618 167.96 233.316L167.852 233.571C167.664 234.094 167.631 234.543 167.123 234.814C166.191 234.103 166.17 232.819 165.159 232.187C164.783 232.296 164.646 232.264 164.444 232.605C163.782 233.719 163.901 235.675 163.519 236.968C162.6 240.072 157.391 242.627 154.799 244.452C153.256 244.463 149.305 244.108 148.244 245.157C148.463 246.023 149.05 245.881 149.037 246.824C148.712 246.639 148.336 246.389 147.98 246.276C147.199 246.027 146.817 246.312 146.126 246.621C144.807 245.642 143.546 244.615 142.291 243.554C136.215 239.518 131.379 233.198 126.545 227.81C121.828 222.551 115.463 215.52 115.967 207.928C116.128 205.504 116.936 204.356 118.7 202.808C120.272 201.593 121.701 201.07 123.633 200.657Z"/>
	<path fill="#490684" transform="scale(3.48805 3.48805)" d="M156.28 217.629C158.046 219.491 159.917 221.482 161.421 223.567C158.36 222.885 156.409 220.557 154.703 218.081L156.28 217.629Z"/>
	<path fill="#158AE1" transform="scale(3.48805 3.48805)" d="M118.7 202.808C120.272 201.593 121.701 201.07 123.633 200.657C123.846 201.078 124.05 201.728 124.504 201.918C124.967 202.111 125.714 202.022 126.216 202.012C127.602 202.181 128.788 202.516 130.079 203.044C126.824 202.842 123.065 202.985 119.908 203.771C119.648 203.836 119.501 203.856 119.231 203.786L118.7 202.808Z"/>
	<path fill="#30849B" transform="scale(3.48805 3.48805)" d="M149.766 211.173C152.06 213.179 154.133 215.465 156.28 217.629L154.703 218.081L147.759 212.353C148.47 211.812 149.179 212.012 149.766 211.173Z"/>
	<path fill="#2F96C4" transform="scale(3.48805 3.48805)" d="M123.633 200.657C126.152 200.085 128.134 200.032 130.684 200.595C136.434 201.77 145.851 206.677 149.766 211.173C149.179 212.012 148.47 211.812 147.759 212.353C142.526 208.419 136.538 204.508 130.079 203.044C128.788 202.516 127.602 202.181 126.216 202.012C125.714 202.022 124.967 202.111 124.504 201.918C124.05 201.728 123.846 201.078 123.633 200.657Z"/>
	<path fill="#7103DB" transform="scale(3.48805 3.48805)" d="M38.7173 127.893C39.0096 126.831 39.0034 125.46 39.6077 124.556C40.1285 124.359 40.2122 124.308 40.7257 124.543C41.6144 124.951 42.3704 125.957 42.9128 126.739C43.9912 128.292 44.7875 130.195 45.7503 131.843C47.4681 134.785 49.5298 137.739 50.9838 140.815C51.7271 142.387 52.2391 144.092 52.8684 145.714C54.0797 148.835 55.3864 151.972 56.6756 155.063C58.2504 158.84 60.2971 162.425 61.8844 166.192C64.1757 169.193 65.5678 172.757 67.3137 176.078C68.4558 178.252 69.8507 180.402 70.7904 182.667C71.6109 184.645 71.8845 186.83 72.7889 188.78C73.5202 190.357 74.7976 191.743 75.7484 193.198C76.8912 194.947 77.8704 196.897 78.8843 198.731C79.9344 200.63 79.403 201.707 80.1006 203.279C81.088 205.505 82.9407 207.494 84.1313 209.663C85.4452 212.058 87.3102 215.315 89.3267 217.141C90.0816 217.825 90.9148 217.892 91.619 218.837C92.0001 219.348 92.1614 219.727 92.1316 220.362C92.1265 220.471 92.1321 220.581 92.131 220.69L92.1264 220.934C92.5419 221.337 93.2596 221.603 93.5909 221.967C95.1964 223.731 95.5551 226.193 98.2326 228.437C99.3208 229.349 101.185 228.999 102.15 229.957C105.315 233.099 104.145 235.552 109.8 237.16L110.109 237.047C109.617 236.276 109.082 235.508 108.643 234.707C113.668 238.968 119.559 243.903 125.604 246.624C126.937 247.648 140.868 253.182 143.053 253.859Q144.159 254.205 145.317 254.229C146.63 254.276 148.037 254.246 149.127 255.089C148.598 255.669 148.427 255.918 147.651 256.146L147.348 256.853C146.707 257.269 146.322 257.668 145.51 257.56C144.566 257.434 144.303 257.147 143.272 257.41C142.773 257.8 142.532 258.183 142.239 258.739C141.455 258.832 140.89 258.248 140.114 258.127C137.841 258.622 135.541 259.112 133.229 259.377C132.959 259.177 132.679 258.985 132.415 258.778C131.224 257.843 124.695 257.999 122.928 258.052L122.529 258.018C122.213 257.811 122.112 257.685 121.955 257.34L122.113 257.508L122.325 257.047C123.092 257.034 123.864 256.959 124.63 256.908C121.449 255.494 118.083 254.761 114.793 253.661C111.155 252.444 107.601 250.96 103.985 249.674C100.99 248.61 97.9169 247.732 94.9455 246.607C92.4196 245.651 90.1592 244.14 87.7835 242.878C85.9407 241.899 83.9473 241.126 82.0286 240.307C82.5028 240.312 82.7243 240.293 83.1443 240.074C82.5109 238.424 78.9609 237.416 77.5546 236.245C77.4199 236.133 77.2838 236.02 77.1512 235.905C77.1021 235.862 77.054 235.819 77.0054 235.776L76.4193 236.215C74.9705 234.873 73.7278 233.031 72.1364 231.884C71.1616 231.182 70.3728 230.172 69.4559 229.382C66.2294 226.604 62.9558 224.109 60.1924 220.843C58.2758 218.578 56.5902 215.951 54.5011 213.862L54.323 213.686C54.489 213.257 54.6833 212.801 54.7787 212.35C55.2607 210.072 51.4781 208.589 50.3248 207.385C49.93 206.973 49.6188 206.413 49.3298 205.922L49.3817 205.696L49.3823 205.349C50.9751 205.991 52.7866 207.684 54.2511 208.662C55.187 209.287 56.2094 209.657 57.1681 210.232C58.2886 210.903 59.3009 211.806 60.3303 212.613C61.0653 213.188 62.0817 214.146 63.0609 214.027C63.4088 213.447 63.7103 213.008 64.2402 212.583C66.1752 212.532 65.5891 213.549 66.6904 214.168C66.4464 212.862 65.2405 211.112 64.6086 209.903C61.1674 203.32 57.0156 197.051 54.0013 190.265C51.5162 184.671 49.6633 178.614 47.6677 172.822C47.0416 171.004 46.7087 168.981 45.8567 167.263C41.9301 154.293 39.9543 141.349 38.7173 127.893Z"/>
	<path fill="#8609AD" transform="scale(3.48805 3.48805)" d="M133.009 252.302C135.1 253.22 137.275 253.956 139.444 254.667C141.906 255.475 145.314 253.613 147.516 255.531L147.651 256.146L147.348 256.853C146.707 257.269 146.322 257.668 145.51 257.56C144.566 257.434 144.303 257.147 143.272 257.41C142.773 257.8 142.532 258.183 142.239 258.739C141.455 258.832 140.89 258.248 140.114 258.127C141.444 257.681 142.657 256.741 144.029 256.545C144.09 256.536 144.152 256.53 144.214 256.523C142.658 255.683 138.088 255.691 136.046 255.143C134.824 254.816 133.63 254.139 132.52 253.542L132.984 253.511L132.412 253.373L132.932 253.716L132.946 253.462L133.385 253.487L133.495 253.31L132.677 252.635L133.009 252.302Z"/>
	<path fill="#4C06A1" transform="scale(3.48805 3.48805)" d="M61.8844 166.192C64.1757 169.193 65.5678 172.757 67.3137 176.078C68.4558 178.252 69.8507 180.402 70.7904 182.667C71.6109 184.645 71.8845 186.83 72.7889 188.78C73.5202 190.357 74.7976 191.743 75.7484 193.198C76.8912 194.947 77.8704 196.897 78.8843 198.731C79.9344 200.63 79.403 201.707 80.1006 203.279C81.088 205.505 82.9407 207.494 84.1313 209.663C85.4452 212.058 87.3102 215.315 89.3267 217.141C90.0816 217.825 90.9148 217.892 91.619 218.837C92.0001 219.348 92.1614 219.727 92.1316 220.362C92.1265 220.471 92.1321 220.581 92.131 220.69L92.1264 220.934C92.5419 221.337 93.2596 221.603 93.5909 221.967C95.1964 223.731 95.5551 226.193 98.2326 228.437C99.3208 229.349 101.185 228.999 102.15 229.957C105.315 233.099 104.145 235.552 109.8 237.16L110.109 237.047C109.617 236.276 109.082 235.508 108.643 234.707C113.668 238.968 119.559 243.903 125.604 246.624C126.937 247.648 140.868 253.182 143.053 253.859Q144.159 254.205 145.317 254.229C146.63 254.276 148.037 254.246 149.127 255.089C148.598 255.669 148.427 255.918 147.651 256.146L147.516 255.531C145.314 253.613 141.906 255.475 139.444 254.667C137.275 253.956 135.1 253.22 133.009 252.302C131.515 250.703 120.208 244.981 117.428 243.399C116.471 242.855 113.077 240.191 112.634 240.154L112.657 240.101L112.592 240.605C113.282 241.201 113.661 241.933 114.276 242.579C115.08 243.421 116.469 244.211 117.036 245.194C117.125 245.348 117.153 245.757 117.193 245.947L116.953 246.107C112.658 243.001 108.874 238.829 105.091 235.125C102.473 232.561 99.4597 230.361 96.9499 227.701C94.8842 225.511 93.1155 222.978 91.2681 220.601C88.8773 217.524 86.3208 214.48 84.1191 211.267C82.5603 208.992 81.2872 206.493 79.8959 204.109C77.627 200.223 75.2855 196.397 73.2429 192.382C72.0315 190 71.7223 187.237 70.5258 184.789C67.4881 178.576 63.8112 172.914 61.8844 166.192Z"/>
	<defs>
		<linearGradient id="gradient_3" gradientUnits="userSpaceOnUse" x1="182.54214" y1="124.12852" x2="231.92778" y2="59.840031">
			<stop offset="0" stop-color="#6206BE"/>
			<stop offset="1" stop-color="#8D04EF"/>
		</linearGradient>
	</defs>
	<path fill="url(#gradient_3)" transform="scale(3.48805 3.48805)" d="M133.155 35.7986C134.307 33.5201 137.255 31.0393 139.51 29.9104C143.995 27.6657 157.807 29.5789 163.082 30.0456C168.512 30.526 173.849 30.8513 179.243 31.7523C183.64 32.4868 188.181 33.5048 192.408 34.9168C196.712 35.9567 200.934 38.4133 204.88 40.4C207.986 41.9217 210.914 43.8645 213.83 45.7199C226.408 53.7236 234.311 61.3543 243.648 72.892L243.9 74.263L244.389 75.2105L244.193 75.2366L243.611 74.7886L243.397 74.841C244.25 77.203 246.986 79.3894 248.33 81.6131C250.02 84.4102 254.027 93.5613 255.589 95.2475C255.98 95.9542 256.601 96.82 256.791 97.5924C258.003 99.8541 258.819 103.168 260.589 104.956C260.775 105.144 260.937 105.374 261.101 105.582C263.068 113.1 264.203 120.482 265.226 128.168C265.041 132.623 264.391 137.099 264.274 141.488C264.205 144.082 264.51 146.682 264.657 149.27C264.72 150.39 264.606 151.521 264.74 152.633C264.142 156.449 263.798 160.327 263.028 164.112C262.359 164.917 261.341 165.931 260.974 166.908C260.425 168.37 260.688 170.09 260.344 171.605C259.716 174.379 258.732 177.662 257.737 180.343C257.426 181.184 256.883 181.931 256.559 182.76C255.297 181.702 255.454 178.642 252.927 176.752C252.36 173.03 252.005 169.277 251.391 165.562C249.571 154.55 246.973 143.967 243.534 133.354C242.352 130.84 241.557 128.098 240.391 125.547C240.695 125.128 241.132 124.772 241.506 124.415C239.351 121.517 238.449 117.251 236.77 114C234.194 109.013 231.179 103.849 227.831 99.3501C226.18 97.1315 224.309 95.0704 222.57 92.9202C220.966 90.9369 219.438 88.7896 217.677 86.9464C216.95 85.6744 215.852 84.4559 214.898 83.3438C211.733 79.6535 208.003 76.638 204.401 73.3981C201.246 70.5611 198.32 67.5305 195.031 64.8381C187.431 58.6162 175.585 51.4405 166.277 48.2635C162.482 46.9683 158.558 46.7686 154.687 45.8708C150.569 44.9158 146.406 43.5643 142.174 43.2542C137.346 42.9005 133.729 44.2493 130.113 47.3762L130.515 47.7647C127.931 50.3963 125.788 53.447 123.592 56.4024C121.506 58.9211 121.387 63.6256 121.664 66.7931C121.9 69.4882 122.773 72.3908 123.746 74.9122C124.207 76.1048 124.899 77.4365 125.147 78.6853C125.267 79.287 125.172 79.9685 125.115 80.5757C123.849 78.9788 123.348 76.7405 122.341 74.9449C121.948 73.9775 121.453 73.0917 120.938 72.1853C120.922 70.3875 119.621 67.0549 118.494 65.6556C118.356 65.6158 118.311 65.6139 118.182 65.5149C117.59 65.0604 117.447 63.6118 117.298 62.8937C116.841 60.3447 118.455 58.0708 118.221 55.6547C118.188 55.3148 118.469 55.0806 118.666 54.8075C119.674 54.011 120.796 53.4249 121.874 52.7314C122.633 51.2687 123.363 49.6021 124.394 48.313C127.384 44.571 132.712 40.8604 133.155 35.7986Z"/>
	<path fill="#4C06A1" transform="scale(3.48805 3.48805)" d="M241.506 124.415C242.874 126.344 244.096 128.95 243.663 131.383C243.533 132.116 243.432 132.599 243.534 133.354C242.352 130.84 241.557 128.098 240.391 125.547C240.695 125.128 241.132 124.772 241.506 124.415Z"/>
	<path fill="#4E0B75" transform="scale(3.48805 3.48805)" d="M118.494 65.6556C118.438 64.3542 118.033 63.4098 117.489 62.2486L117.673 62.0816L118.784 62.8387C118.824 61.4302 120.273 57.2626 121.277 56.298C122.397 55.221 122.75 56.2506 124.257 53.9836L124.43 53.7219C123.69 53.9052 122.998 54.0578 122.235 54.1096L122.016 53.755L122.205 53.3824C122.951 53.122 123.711 52.7944 124.471 52.5865C126.435 52.0496 128.392 48.6882 130.113 47.3762L130.515 47.7647C127.931 50.3963 125.788 53.447 123.592 56.4024C121.506 58.9211 121.387 63.6256 121.664 66.7931C121.9 69.4882 122.773 72.3908 123.746 74.9122C124.207 76.1048 124.899 77.4365 125.147 78.6853C125.267 79.287 125.172 79.9685 125.115 80.5757C123.849 78.9788 123.348 76.7405 122.341 74.9449C121.948 73.9775 121.453 73.0917 120.938 72.1853C120.922 70.3875 119.621 67.0549 118.494 65.6556Z"/>
	<path fill="#7103DB" transform="scale(3.48805 3.48805)" d="M192.408 34.9168C196.712 35.9567 200.934 38.4133 204.88 40.4C207.986 41.9217 210.914 43.8645 213.83 45.7199C226.408 53.7236 234.311 61.3543 243.648 72.892L243.9 74.263C242.774 72.9381 239.659 71.6227 239.294 69.9878C239.672 69.9614 239.684 70.0347 239.963 69.7473C238.089 66.5721 229.164 58.0307 226.148 55.5492C225.321 54.8685 224.282 54.5545 223.463 53.8998C221.853 52.6126 220.495 51.0466 218.794 49.8357C215.977 47.8296 212.864 46.2399 209.964 44.3613C208.276 43.2683 205.925 43.2404 204.07 42.4261C203.132 42.014 202.18 41.3981 201.783 40.413L202.036 40.2548C202.24 40.5155 202.485 40.9019 202.798 41.0323C203.955 41.5146 205.341 41.9873 206.569 42.2282L204.883 41.0463C203.153 40.2173 198.247 37.4068 196.56 37.5913C196.129 37.6385 195.705 37.7109 195.275 37.6103C194.645 37.4631 193.864 36.9292 193.527 36.3656C193.222 35.8558 192.761 35.4086 192.408 34.9168Z"/>
	<defs>
		<linearGradient id="gradient_4" gradientUnits="userSpaceOnUse" x1="174.10794" y1="101.48957" x2="193.67357" y2="72.07103">
			<stop offset="0" stop-color="black"/>
			<stop offset="1" stop-color="#240149"/>
		</linearGradient>
	</defs>
	<path fill="url(#gradient_4)" transform="scale(3.48805 3.48805)" d="M130.113 47.3762C133.729 44.2493 137.346 42.9005 142.174 43.2542C146.406 43.5643 150.569 44.9158 154.687 45.8708C158.558 46.7686 162.482 46.9683 166.277 48.2635C175.585 51.4405 187.431 58.6162 195.031 64.8381C198.32 67.5305 201.246 70.5611 204.401 73.3981C208.003 76.638 211.733 79.6535 214.898 83.3438C215.852 84.4559 216.95 85.6744 217.677 86.9464C219.438 88.7896 220.966 90.9369 222.57 92.9202C224.309 95.0704 226.18 97.1315 227.831 99.3501C231.179 103.849 234.194 109.013 236.77 114C238.449 117.251 239.351 121.517 241.506 124.415C241.132 124.772 240.695 125.128 240.391 125.547L239.95 125.019C238.376 124.551 233.963 128.366 232.375 129.163L232.173 129.263C227.523 128.708 224.671 125.303 220.93 122.819C217.676 120.658 213.608 119.788 210.411 117.515C208.455 116.123 206.729 114.265 204.898 112.698C201.297 109.617 197.454 106.832 193.752 103.876C191.198 101.837 188.866 99.5297 186.084 97.7903C184.936 97.0717 183.792 96.6165 182.516 96.1932C179.239 95.3318 175.434 95.8766 172.27 97.0868C171.244 97.4777 170.196 97.9457 169.133 98.2182C168.276 98.1771 167.39 98.0184 166.625 98.4673C166.162 99.1125 166.228 99.8009 166.214 100.563C166.062 101.173 165.928 101.737 165.642 102.302C164.653 104.199 161.726 107.724 159.713 108.505L156.592 109.797C156.469 109.79 156.345 109.784 156.222 109.775C156.054 109.764 155.885 109.744 155.716 109.742C153.9 109.721 152.56 108.334 150.674 108.116C149.075 107.79 147.527 107.377 145.962 106.916C144.619 106.48 143.333 105.98 142.035 105.43C137.258 103.878 130.994 97.4667 128.029 93.4913C126.857 91.9202 126.155 89.9149 124.689 88.5944C123.235 85.6666 121.974 82.5143 120.929 79.4192C118.684 75.1299 117.755 67.9046 116.9 63.0182L117.298 62.8937C117.447 63.6118 117.59 65.0604 118.182 65.5149C118.311 65.6139 118.356 65.6158 118.494 65.6556C119.621 67.0549 120.922 70.3875 120.938 72.1853C121.453 73.0917 121.948 73.9775 122.341 74.9449C123.348 76.7405 123.849 78.9788 125.115 80.5757C125.172 79.9685 125.267 79.287 125.147 78.6853C124.899 77.4365 124.207 76.1048 123.746 74.9122C122.773 72.3908 121.9 69.4882 121.664 66.7931C121.387 63.6256 121.506 58.9211 123.592 56.4024C125.788 53.447 127.931 50.3963 130.515 47.7647L130.113 47.3762Z"/>
	<path fill="#17032D" transform="scale(3.48805 3.48805)" d="M173.108 95.2146C175.382 96.0062 180.625 92.035 182.239 95.3976C182.362 95.6531 182.441 95.9211 182.516 96.1932C179.239 95.3318 175.434 95.8766 172.27 97.0868C172.528 96.4485 172.792 95.8276 173.108 95.2146Z"/>
	<path fill="#230253" transform="scale(3.48805 3.48805)" d="M135.966 46.5125C140.292 45.6091 146.678 45.9816 150.816 47.5553C153.332 48.5125 156.169 50.2667 158.42 51.7529C162.547 54.4775 166.897 56.9007 170.961 59.6878C174.412 62.0548 177.61 64.7917 180.829 67.4601C181.559 68.0651 183.412 69.2862 183.751 70.0909C182.59 70.0665 175.127 63.086 171.091 62.5344C168.846 62.2277 167.165 63.899 165.505 65.1529C165.595 65.8418 165.929 66.0685 166.376 66.5632C162.723 65.3549 150.657 52.8503 145.083 49.7456C142.218 48.1498 139.103 47.3742 135.966 46.5125Z"/>
	<defs>
		<linearGradient id="gradient_5" gradientUnits="userSpaceOnUse" x1="180.82085" y1="78.725449" x2="188.48193" y2="56.118828">
			<stop offset="0" stop-color="#29005E"/>
			<stop offset="1" stop-color="#4C04A7"/>
		</linearGradient>
	</defs>
	<path fill="url(#gradient_5)" transform="scale(3.48805 3.48805)" d="M130.113 47.3762C133.729 44.2493 137.346 42.9005 142.174 43.2542C146.406 43.5643 150.569 44.9158 154.687 45.8708C158.558 46.7686 162.482 46.9683 166.277 48.2635C175.585 51.4405 187.431 58.6162 195.031 64.8381C198.32 67.5305 201.246 70.5611 204.401 73.3981C208.003 76.638 211.733 79.6535 214.898 83.3438C215.852 84.4559 216.95 85.6744 217.677 86.9464L217.471 87.1706L217.964 88.1996L217.815 88.5492C213.598 87.0443 213.083 88.3094 209.154 88.038C207.782 87.9433 206.485 87.2312 205.121 86.9629L204.949 87.1847C205.47 87.8844 206.836 88.984 206.966 89.769L206.871 89.7948C203.534 86.4343 200.373 82.7559 196.837 79.6169C192.841 76.0686 188.184 73.0622 183.751 70.0909C183.412 69.2862 181.559 68.0651 180.829 67.4601C177.61 64.7917 174.412 62.0548 170.961 59.6878C166.897 56.9007 162.547 54.4775 158.42 51.7529C156.169 50.2667 153.332 48.5125 150.816 47.5553C146.678 45.9816 140.292 45.6091 135.966 46.5125C134.061 46.1906 132.839 46.1017 131.213 47.2489Q130.859 47.5 130.515 47.7647L130.113 47.3762Z"/>
	<path fill="#230253" transform="scale(3.48805 3.48805)" d="M125.115 80.5757C125.172 79.9685 125.267 79.287 125.147 78.6853C124.899 77.4365 124.207 76.1048 123.746 74.9122C122.773 72.3908 121.9 69.4882 121.664 66.7931C121.387 63.6256 121.506 58.9211 123.592 56.4024C122.431 59.8224 123.692 59.4708 123.387 61.5248C123.124 63.2915 122.204 64.9507 122.255 66.7685L122.52 67.1684C122.912 67.027 123.309 66.9036 123.681 66.7144C125.72 65.6766 132.033 67.474 134.519 67.5934C137.005 67.7128 141.535 67.3278 143.918 66.6566C144.206 66.5752 144.465 66.5565 144.763 66.5428C144.83 66.1946 144.746 66.1384 144.609 65.8235C145.294 63.9579 146.2 64.3771 147.754 63.5787C147.812 63.5489 147.87 63.5177 147.928 63.4873C150.113 62.6936 151.175 62.5097 153.376 63.5264C155.407 64.4648 157.654 66.0224 159.249 67.5901C162.805 71.0845 166.184 76.5605 169.276 80.5784C170.363 81.991 171.831 83.0937 172.885 84.5225C173.517 85.3791 174.007 86.3953 174.355 87.3985C175.083 89.4999 174.998 91.7375 174.2 93.7995L173.653 94.4876L173.108 95.2146C172.792 95.8276 172.528 96.4485 172.27 97.0868C171.244 97.4777 170.196 97.9457 169.133 98.2182C168.276 98.1771 167.39 98.0184 166.625 98.4673C166.162 99.1125 166.228 99.8009 166.214 100.563C166.062 101.173 165.928 101.737 165.642 102.302C164.653 104.199 161.726 107.724 159.713 108.505L156.592 109.797C156.469 109.79 156.345 109.784 156.222 109.775C156.054 109.764 155.885 109.744 155.716 109.742C153.9 109.721 152.56 108.334 150.674 108.116C149.075 107.79 147.527 107.377 145.962 106.916C144.619 106.48 143.333 105.98 142.035 105.43C137.258 103.878 130.994 97.4667 128.029 93.4913C126.857 91.9202 126.155 89.9149 124.689 88.5944C123.235 85.6666 121.974 82.5143 120.929 79.4192C118.684 75.1299 117.755 67.9046 116.9 63.0182L117.298 62.8937C117.447 63.6118 117.59 65.0604 118.182 65.5149C118.311 65.6139 118.356 65.6158 118.494 65.6556C119.621 67.0549 120.922 70.3875 120.938 72.1853C121.453 73.0917 121.948 73.9775 122.341 74.9449C123.348 76.7405 123.849 78.9788 125.115 80.5757Z"/>
	<path fill="#4E0B75" transform="scale(3.48805 3.48805)" d="M155.736 70.655L156.339 70.3349C156.052 69.7068 155.128 69.2637 155.128 68.6594C157.292 69.4573 164.843 81.3403 168.725 83.7135C170.666 85.4084 174.059 89.7277 174.276 92.3838C174.314 92.8482 174.254 93.3381 174.2 93.7995L173.653 94.4876C173.757 93.7296 173.906 92.9106 173.733 92.1534C172.933 88.6493 167.522 84.2391 165.166 81.6031C163.584 79.8338 162.309 77.8393 160.638 76.1381C159.216 74.6901 156.484 72.5623 155.736 70.655Z"/>
	<path fill="#4E0B75" transform="scale(3.48805 3.48805)" d="M125.155 81.5265L125.607 81.1314L125.955 81.3475L127.299 80.7605C128.056 81.4593 128.494 82.5204 129.119 83.3467C132.629 87.9919 134.673 92.1835 139.29 96.0448L139.631 97.5072C135.704 94.6604 133.336 91.0688 130.326 87.3794C128.859 85.5799 127.195 83.9184 125.588 82.243L125.155 81.5265Z"/>
	<path fill="#4E0B75" transform="scale(3.48805 3.48805)" d="M139.29 96.0448C140.383 96.6258 141.544 97.344 142.715 97.7391C145.118 98.5498 151.201 99.288 153.615 98.5954C153.826 98.5347 153.98 98.377 154.177 98.3131C154.313 98.2687 154.537 98.2763 154.684 98.2755C157.186 98.2717 161.2 98.011 163.586 98.7602L164.785 100.4C164.363 101.037 163.961 101.7 163.465 102.282L163.316 102.296C163.44 101.86 163.416 101.622 163.346 101.187C159.494 97.7765 149.652 101.164 144.618 99.9605C142.839 99.5352 141.164 98.4779 139.631 97.5072L139.29 96.0448Z"/>
	<path fill="#490684" transform="scale(3.48805 3.48805)" d="M144.161 68.1274C146.781 69.6944 149.486 67.7207 152.298 68.447C153.643 68.7946 154.476 70.0787 155.736 70.655C156.484 72.5623 159.216 74.6901 160.638 76.1381C162.309 77.8393 163.584 79.8338 165.166 81.6031C167.522 84.2391 172.933 88.6493 173.733 92.1534C173.906 92.9106 173.757 93.7296 173.653 94.4876L173.108 95.2146C172.792 95.8276 172.528 96.4485 172.27 97.0868C171.244 97.4777 170.196 97.9457 169.133 98.2182C168.963 98.1542 168.813 98.0843 168.66 97.9868C168.108 97.636 168.151 97.2645 168.009 96.6579C167.179 96.0982 166.72 96.6851 165.869 96.1835C167.245 95.9117 168.566 96.3038 169.897 96.0356C170.806 95.9399 171.812 95.8699 172.443 95.1106C173.193 94.2078 172.949 92.6202 172.907 91.5131C171.731 89.6689 169.863 88.2414 168.405 86.6248C165.819 83.758 163.453 80.6761 160.822 77.8379C159.8 76.7356 158.619 75.7924 157.569 74.7186C156.377 73.4994 155.226 71.8707 153.718 71.0359C152.634 70.4357 150.369 69.5632 149.127 69.5884C146.179 69.6482 143.054 70.9789 140.2 71.6601C138.096 72.162 135.985 72.3882 133.891 72.9851C134.313 72.358 135.166 72.0997 135.37 71.391L134.819 71.0919C136.196 70.026 142.388 70.4733 143.893 69.1701C144.214 68.8919 144.132 68.5282 144.161 68.1274Z"/>
	<path fill="#490684" transform="scale(3.48805 3.48805)" d="M122.341 74.9449C123.348 76.7405 123.849 78.9788 125.115 80.5757C125.338 81.0376 125.302 81.0282 125.155 81.5265L125.588 82.243C127.195 83.9184 128.859 85.5799 130.326 87.3794C133.336 91.0688 135.704 94.6604 139.631 97.5072C141.164 98.4779 142.839 99.5352 144.618 99.9605C149.652 101.164 159.494 97.7765 163.346 101.187C163.416 101.622 163.44 101.86 163.316 102.296L163.136 102.474C163.087 102.429 163.039 102.383 162.989 102.339C162.4 101.813 161.674 101.25 160.887 101.082C158.216 100.511 154.097 101.206 151.292 101.282C149.006 101.343 146.636 100.728 144.498 100.821C143.729 101.396 142.725 101.315 141.806 101.356C140.316 101.019 138.572 99.504 137.29 98.6316C136.989 97.6809 134.163 96.1429 133.39 95.2879C132.457 94.2557 131.674 92.8332 130.865 91.6828C128.172 87.854 122.175 79.7184 122.341 74.9449Z"/>
	<path fill="#8609AD" transform="scale(3.48805 3.48805)" d="M116.9 63.0182L117.298 62.8937C117.447 63.6118 117.59 65.0604 118.182 65.5149C118.311 65.6139 118.356 65.6158 118.494 65.6556C119.621 67.0549 120.922 70.3875 120.938 72.1853C121.453 73.0917 121.948 73.9775 122.341 74.9449C122.175 79.7184 128.172 87.854 130.865 91.6828C131.674 92.8332 132.457 94.2557 133.39 95.2879C134.163 96.1429 136.989 97.6809 137.29 98.6316C138.572 99.504 140.316 101.019 141.806 101.356C142.521 102.06 143.59 102.89 143.904 103.844C143.761 104.374 143.703 104.728 143.169 105.012C142.81 105.202 142.371 105.21 142.035 105.43C137.258 103.878 130.994 97.4667 128.029 93.4913C126.857 91.9202 126.155 89.9149 124.689 88.5944C123.235 85.6666 121.974 82.5143 120.929 79.4192C118.684 75.1299 117.755 67.9046 116.9 63.0182Z"/>
	<path fill="#4C06A1" transform="scale(3.48805 3.48805)" d="M116.9 63.0182L117.298 62.8937C117.447 63.6118 117.59 65.0604 118.182 65.5149C118.311 65.6139 118.356 65.6158 118.494 65.6556C119.621 67.0549 120.922 70.3875 120.938 72.1853C121.453 73.0917 121.948 73.9775 122.341 74.9449C122.175 79.7184 128.172 87.854 130.865 91.6828C131.674 92.8332 132.457 94.2557 133.39 95.2879C134.163 96.1429 136.989 97.6809 137.29 98.6316C136.916 98.6065 136.618 98.4178 136.296 98.2415C133.467 96.6914 126.545 88.4123 125.026 85.5835C123.479 82.702 122.57 79.5358 121.641 76.415L121.157 76.4501C121.147 78.1041 122.331 80.2969 122.772 81.9578L122.455 82.2654L122.652 82.4422L122.463 82.3941C122.178 81.3028 121.946 80.0691 120.929 79.4192C118.684 75.1299 117.755 67.9046 116.9 63.0182Z"/>
	<defs>
		<linearGradient id="gradient_6" gradientUnits="userSpaceOnUse" x1="150.89456" y1="100.83961" x2="151.21045" y2="107.68638">
			<stop offset="0" stop-color="#490692"/>
			<stop offset="1" stop-color="#8F0FC2"/>
		</linearGradient>
	</defs>
	<path fill="url(#gradient_6)" transform="scale(3.48805 3.48805)" d="M144.498 100.821C146.636 100.728 149.006 101.343 151.292 101.282C154.097 101.206 158.216 100.511 160.887 101.082C161.674 101.25 162.4 101.813 162.989 102.339C163.039 102.383 163.087 102.429 163.136 102.474L163.316 102.296L163.465 102.282C164.189 102.312 164.919 102.371 165.642 102.302C164.653 104.199 161.726 107.724 159.713 108.505L156.592 109.797C156.469 109.79 156.345 109.784 156.222 109.775C156.054 109.764 155.885 109.744 155.716 109.742C153.9 109.721 152.56 108.334 150.674 108.116C149.075 107.79 147.527 107.377 145.962 106.916C144.619 106.48 143.333 105.98 142.035 105.43C142.371 105.21 142.81 105.202 143.169 105.012C143.703 104.728 143.761 104.374 143.904 103.844C143.59 102.89 142.521 102.06 141.806 101.356C142.725 101.315 143.729 101.396 144.498 100.821Z"/>
	<path fill="#4C06A1" transform="scale(3.48805 3.48805)" d="M161.958 104.317C160.932 103.389 159.057 103.458 157.738 103.316L157.756 103.122C158.6 102.819 159.461 102.582 160.368 102.654C161.313 102.729 161.928 102.76 162.56 103.461L161.958 104.317Z"/>
	<path fill="#4E0B75" transform="scale(3.48805 3.48805)" d="M150.674 108.116C153.205 108.117 155.526 108.118 157.98 107.423C158.678 108.222 159.255 107.899 159.713 108.505L156.592 109.797C156.469 109.79 156.345 109.784 156.222 109.775C156.054 109.764 155.885 109.744 155.716 109.742C153.9 109.721 152.56 108.334 150.674 108.116Z"/>
	<path fill="#37094E" transform="scale(3.48805 3.48805)" d="M163.465 102.282C164.189 102.312 164.919 102.371 165.642 102.302C164.653 104.199 161.726 107.724 159.713 108.505C159.255 107.899 158.678 108.222 157.98 107.423C159.695 106.644 160.765 105.772 161.958 104.317L162.56 103.461L163.136 102.474L163.316 102.296L163.465 102.282Z"/>
	<path fill="#4C06A1" transform="scale(3.48805 3.48805)" d="M133.891 72.9851C135.985 72.3882 138.096 72.162 140.2 71.6601C143.054 70.9789 146.179 69.6482 149.127 69.5884C150.369 69.5632 152.634 70.4357 153.718 71.0359C155.226 71.8707 156.377 73.4994 157.569 74.7186C158.619 75.7924 159.8 76.7356 160.822 77.8379C163.453 80.6761 165.819 83.758 168.405 86.6248C169.863 88.2414 171.731 89.6689 172.907 91.5131C172.949 92.6202 173.193 94.2078 172.443 95.1106C171.812 95.8699 170.806 95.9399 169.897 96.0356C170.652 95.0358 170.402 93.8862 170.327 92.7079C170.321 92.6078 170.321 92.5071 170.308 92.4077C170.089 90.6985 159.227 79.5238 157.251 77.9781C151.414 74.044 150.653 73.3219 143.624 74.6989C141.731 75.0697 140.612 75.5957 139.52 77.2456Q139.317 77.5481 139.136 77.8641C139.611 78.9471 140.792 79.027 141.219 80.1775L141.094 80.1297C141.117 80.6602 141.276 81.1793 141.291 81.6929C141.427 82.4423 141.48 82.8717 142.124 83.3774C142.879 83.9694 144.208 83.906 145.11 83.8642C147.233 83.9323 148.255 84.7693 149.678 86.2776Q150.099 86.7254 150.511 87.182L149.326 86.8602C147.054 86.5124 144.801 86.1448 142.556 85.653C139.918 85.4026 135.579 82.5792 133.893 80.5397C133.886 79.8456 133.41 79.448 133.432 78.8119C134.047 78.9344 134.376 79.1656 134.858 79.5397L135.038 79.6798C134.895 78.9741 134.672 78.3332 134.332 77.698C133.78 76.6641 133.809 76.0133 133.874 74.8627L133.891 72.9851Z"/>
	<path fill="#490684" transform="scale(3.48805 3.48805)" d="M140.633 74.2084C142.813 73.0313 149.12 72.4729 151.496 73.1942C154.23 74.0239 155.643 75.7756 157.251 77.9781C151.414 74.044 150.653 73.3219 143.624 74.6989C141.731 75.0697 140.612 75.5957 139.52 77.2456Q139.317 77.5481 139.136 77.8641C139.611 78.9471 140.792 79.027 141.219 80.1775L141.094 80.1297C141.117 80.6602 141.276 81.1793 141.291 81.6929C138.822 79.4835 136.722 76.9642 134.588 74.4406C136.746 74.3526 138.525 75.0505 140.633 74.2084Z"/>
	<path fill="#7103DB" transform="scale(3.48805 3.48805)" d="M141.291 81.6929C141.276 81.1793 141.117 80.6602 141.094 80.1297L141.219 80.1775C140.792 79.027 139.611 78.9471 139.136 77.8641Q139.317 77.5481 139.52 77.2456C140.612 75.5957 141.731 75.0697 143.624 74.6989C150.653 73.3219 151.414 74.044 157.251 77.9781C159.227 79.5238 170.089 90.6985 170.308 92.4077C170.321 92.5071 170.321 92.6078 170.327 92.7079C170.402 93.8862 170.652 95.0358 169.897 96.0356C168.566 96.3038 167.245 95.9117 165.869 96.1835C161.666 93.033 157.261 89.8402 152.432 87.7284L150.511 87.182Q150.099 86.7254 149.678 86.2776C148.255 84.7693 147.233 83.9323 145.11 83.8642C144.208 83.906 142.879 83.9694 142.124 83.3774C141.48 82.8717 141.427 82.4423 141.291 81.6929Z"/>
	<path fill="#490684" transform="scale(3.48805 3.48805)" d="M145.11 83.8642C145.296 83.4774 145.689 83.1598 145.69 82.8246L145.435 82.7096C144.443 82.258 142.812 81.5304 142.294 80.5447L142.477 80.4277C145.9 82.4394 151.231 83.4214 152.432 87.7284L150.511 87.182Q150.099 86.7254 149.678 86.2776C148.255 84.7693 147.233 83.9323 145.11 83.8642Z"/>
	<defs>
		<linearGradient id="gradient_7" gradientUnits="userSpaceOnUse" x1="195.47995" y1="132.54384" x2="149.23015" y2="212.25615">
			<stop offset="0" stop-color="#00FFF6" stop-opacity="0.98823529"/>
			<stop offset="1" stop-color="#02B0FF"/>
		</linearGradient>
	</defs>
	<path fill="url(#gradient_7)" transform="scale(3.48805 3.48805)" d="M157.814 122.427C156.036 120.048 151.777 119.502 149.4 117.722L149.422 117.466C150.924 117.297 152.9 118.108 154.389 118.397C158.376 119.17 162.515 119.711 166.557 119.256L166.704 119.225C177.735 121.672 186.21 124.944 196.013 130.669C200.549 134.327 205.633 137.731 209.44 142.157C211.622 144.811 213.991 147.325 216.045 150.08C218.857 153.85 224.908 163.977 226.038 168.325C227.528 171.647 231.779 182.582 231.624 185.827C233.741 194.226 233.982 208.394 231.893 216.753C230.856 220.904 229.064 224.899 226.863 228.561C225.329 231.113 223.356 234.535 221.199 236.542C219.026 237.292 213.649 244.955 210.075 246.581C208.18 247.443 208.029 244.097 206.137 243.438C202.589 242.201 194.716 235.994 191.703 233.39L191.854 233.428Q191.55 233.169 191.241 232.916C190.183 232.049 183.279 227.241 182.514 227.316L182.728 227.935C180.771 228.025 173.633 222.989 170.134 222.335L169.506 222.918L169.072 222.661C168.6 221.701 168.935 221.051 169.239 220.085C168.696 218.041 167.668 212.271 166.616 210.856L166.472 210.665C166.455 210.428 166.43 210.195 166.393 209.96C166.259 209.127 164.754 204.271 164.422 203.738C164.164 203.322 163.679 203 163.287 202.721C163.101 202.491 162.967 202.297 162.847 202.023C161.77 199.566 159.959 197.125 158.65 194.73C157.704 193.926 157.129 192.48 156.469 191.423L149.545 184.85C148.408 184.196 146.546 183.535 145.243 183.653C142.452 181.932 139.628 180.313 136.628 178.981C136.577 178.488 136.635 177.943 136.644 177.445C134.245 176.799 131.943 175.391 129.514 174.657C125.106 173.323 119.866 172.931 115.707 171.038C112.057 171.172 105.126 167.473 101.365 166.116C99.5252 165.013 97.6799 163.894 95.9396 162.639C95.7866 161.643 94.3308 160.943 93.7419 159.983L93.8902 159.604C97.702 159.669 101.34 161.498 105.206 161.292L105.349 161.284C107.71 161.444 110.101 162.031 112.479 162.241C118.86 162.804 126.375 161.749 132.341 159.446C133.376 159.342 134.72 158.644 135.667 158.195C144.93 153.802 145.64 143.431 152.372 139.297C155.768 137.211 159.825 136.648 163.718 136.393C165.408 136.282 167.149 136.266 168.772 135.735C169.685 135.436 170.843 134.869 171.243 133.94C171.617 133.069 171.493 131.889 171.154 131.028C169.515 126.86 161.698 124.096 157.814 122.427Z"/>
	<path fill="#29AFC5" transform="scale(3.48805 3.48805)" d="M136.644 177.445C140.098 178.858 147.221 182.069 149.545 184.85C148.408 184.196 146.546 183.535 145.243 183.653C142.452 181.932 139.628 180.313 136.628 178.981C136.577 178.488 136.635 177.943 136.644 177.445Z"/>
	<path fill="#2F96C4" transform="scale(3.48805 3.48805)" d="M196.013 130.669C200.549 134.327 205.633 137.731 209.44 142.157C209.067 142.348 208.7 142.514 208.372 142.777C205.803 140.039 202.488 138.01 199.549 135.688C197.868 134.359 196.363 132.803 194.612 131.576L196.013 130.669Z"/>
	<path fill="#29AFC5" transform="scale(3.48805 3.48805)" d="M166.704 119.225C177.735 121.672 186.21 124.944 196.013 130.669L194.612 131.576C186.207 126.973 176.978 122.534 167.54 120.639C167.164 120.198 166.948 119.748 166.704 119.225Z"/>
	<path fill="#29AFC5" transform="scale(3.48805 3.48805)" d="M209.44 142.157C211.622 144.811 213.991 147.325 216.045 150.08C218.857 153.85 224.908 163.977 226.038 168.325C227.528 171.647 231.779 182.582 231.624 185.827C229.573 183.657 225.821 172.009 224.512 168.414C223.342 166.483 222.523 164.193 221.504 162.162C219.89 158.946 217.902 155.626 215.949 152.604C213.698 149.123 210.274 146.478 208.372 142.777C208.7 142.514 209.067 142.348 209.44 142.157Z"/>
	<path fill="#0D01FB" transform="scale(3.48805 3.48805)" d="M67.7236 49.8446C70.0905 48.3084 72.9655 44.4322 75.7213 42.3815C83.9313 36.272 100.672 31.2514 110.732 32.8195C113.092 33.1874 115.581 34.0466 117.011 36.0821C118.641 38.4024 117.368 42.9817 116.872 45.5981C116.974 46.1415 116.958 46.7319 117.424 47.0866C117.746 47.3318 118.242 47.4296 118.628 47.5334C118.307 48.4806 118.042 49.353 117.94 50.3506C117.682 51.5561 117.451 52.7483 117.293 53.9712C118.156 54.0742 118.483 53.6241 119.182 53.1365C119.03 53.7035 118.873 54.2576 118.666 54.8075C118.469 55.0806 118.188 55.3148 118.221 55.6547C118.455 58.0708 116.841 60.3447 117.298 62.8937L116.9 63.0182C117.755 67.9046 118.684 75.1299 120.929 79.4192C121.974 82.5143 123.235 85.6666 124.689 88.5944C124.781 89.5108 124.868 90.4575 125.074 91.3556C125.315 92.4055 126.954 96.3169 126.332 97.0781C126.065 97.4041 125.806 97.6713 125.484 97.9419C125.318 98.0964 125.13 98.1739 125.124 98.4111C125.06 101.092 128.715 104.928 130.523 106.752C136.678 112.96 142.341 115.537 150.123 119.006C152.661 120.137 155.21 121.472 157.814 122.427C161.698 124.096 169.515 126.86 171.154 131.028C171.493 131.889 171.617 133.069 171.243 133.94C170.843 134.869 169.685 135.436 168.772 135.735C167.149 136.266 165.408 136.282 163.718 136.393C159.825 136.648 155.768 137.211 152.372 139.297C145.64 143.431 144.93 153.802 135.667 158.195C134.72 158.644 133.376 159.342 132.341 159.446C126.375 161.749 118.86 162.804 112.479 162.241C110.101 162.031 107.71 161.444 105.349 161.284L105.206 161.292C101.34 161.498 97.702 159.669 93.8902 159.604L93.7419 159.983C94.3308 160.943 95.7866 161.643 95.9396 162.639C95.3251 162.207 94.4685 161.495 93.7355 161.324C93.0008 161.152 92.6535 161.461 92.0557 161.821L91.3418 161.43C84.4682 156.953 77.5449 151.392 72.2537 145.073C70.7838 143.317 69.5127 141.355 68.1872 139.487C66.9038 137.679 65.4901 135.946 64.5504 133.926C61.6877 129.139 59.4307 124.159 57.3957 118.978C57.3942 117.811 56.5232 116.124 56.1291 115.008C53.7976 108.403 52.4045 102.098 51.5141 95.1531C51.3952 92.216 51.0677 89.2897 50.9716 86.3482C50.3216 82.5962 50.5949 79.2024 51.0897 75.4673C51.4926 73.8956 51.8904 72.3806 52.5372 70.8863C52.7987 69.5028 53.5254 68.1137 54.0667 66.8151C55.13 63.967 56.7113 61.1656 58.5761 58.7671C59.3467 58.5641 60.012 58.0798 60.6854 57.6652C61.8368 56.4526 62.9362 55.2014 64.033 53.9398L67.7236 49.8446Z"/>
	<path fill="#7103DB" transform="scale(3.48805 3.48805)" d="M116.533 55.8148C116.588 52.3758 116.203 49.001 116.872 45.5981C116.974 46.1415 116.958 46.7319 117.424 47.0866C117.746 47.3318 118.242 47.4296 118.628 47.5334C118.307 48.4806 118.042 49.353 117.94 50.3506C117.682 51.5561 117.451 52.7483 117.293 53.9712C116.986 54.5787 116.741 55.1667 116.533 55.8148Z"/>
	<path fill="#4E0B75" transform="scale(3.48805 3.48805)" d="M117.293 53.9712C118.156 54.0742 118.483 53.6241 119.182 53.1365C119.03 53.7035 118.873 54.2576 118.666 54.8075C118.469 55.0806 118.188 55.3148 118.221 55.6547C118.455 58.0708 116.841 60.3447 117.298 62.8937L116.9 63.0182C116.162 60.2769 115.909 58.6028 116.533 55.8148C116.741 55.1667 116.986 54.5787 117.293 53.9712Z"/>
	<path fill="#7103DB" transform="scale(3.48805 3.48805)" d="M60.6854 57.6652C60.0005 59.261 56.4839 66.0028 55.1522 66.5815C54.8242 66.7241 54.4191 66.7662 54.0667 66.8151C55.13 63.967 56.7113 61.1656 58.5761 58.7671C59.3467 58.5641 60.012 58.0798 60.6854 57.6652Z"/>
	<path fill="#7103DB" transform="scale(3.48805 3.48805)" d="M51.0897 75.4673C51.4926 73.8956 51.8904 72.3806 52.5372 70.8863C53.2359 75.8199 51.8009 78.6898 51.1079 83.3833C50.9597 84.3872 51.0638 85.3587 50.9716 86.3482C50.3216 82.5962 50.5949 79.2024 51.0897 75.4673Z"/>
	<path fill="#4C06A1" transform="scale(3.48805 3.48805)" d="M64.5504 133.926C67.3251 136.118 73.8654 147.601 76.6989 147.482L76.9191 147.376C77.8207 146.947 78.7258 146.684 79.6892 146.432C80.0686 146.763 80.2007 147.185 80.3858 147.639L81.1124 148.109L81.0082 148.427C80.2418 148.285 79.2951 147.906 78.5842 148.207C78.5244 148.706 78.5284 149.014 78.6838 149.494L77.6703 149.686C78.1448 149.941 78.4465 150.117 78.9933 150.082L79.8853 150.502C80.5311 150.031 80.95 149.57 81.808 149.628C82.2441 149.658 82.7452 149.842 83.1663 149.962L81.8052 149.002C82.5062 148.737 82.9898 148.963 83.6616 149.27C85.2379 149.99 86.644 151.184 88.2227 151.838C89.0715 152.19 90.0699 152.091 90.9607 152.302C93.1888 152.828 96.6731 154.582 98.3813 156.129C99.3164 156.976 99.0222 158.668 99.9435 159.551C100.942 160.508 110.988 161.63 112.753 161.635C114.933 161.643 119.054 161.989 120.982 161.497L120.723 161.57L121.045 161.272L120.95 160.749C122.687 160.153 130.17 159.573 132.341 159.446C126.375 161.749 118.86 162.804 112.479 162.241C110.101 162.031 107.71 161.444 105.349 161.284L105.206 161.292C101.34 161.498 97.702 159.669 93.8902 159.604L93.7419 159.983C94.3308 160.943 95.7866 161.643 95.9396 162.639C95.3251 162.207 94.4685 161.495 93.7355 161.324C93.0008 161.152 92.6535 161.461 92.0557 161.821L91.3418 161.43C84.4682 156.953 77.5449 151.392 72.2537 145.073C70.7838 143.317 69.5127 141.355 68.1872 139.487C66.9038 137.679 65.4901 135.946 64.5504 133.926Z"/>
	<path fill="#7103DB" transform="scale(3.48805 3.48805)" d="M84.089 153.804C85.5458 154.422 88.2421 155.564 89.3102 156.675L88.3996 157.689C87.6485 157.273 86.7925 157.059 86.0445 156.615C84.8892 155.93 84.4186 155.071 84.089 153.804Z"/>
	<path fill="#156AE1" transform="scale(3.48805 3.48805)" d="M89.3102 156.675C92.4711 158.05 95.4703 159.097 98.836 159.837C100.956 160.303 103.306 160.581 105.349 161.284L105.206 161.292C101.34 161.498 97.702 159.669 93.8902 159.604L93.7419 159.983C94.3308 160.943 95.7866 161.643 95.9396 162.639C95.3251 162.207 94.4685 161.495 93.7355 161.324C93.0008 161.152 92.6535 161.461 92.0557 161.821L91.3418 161.43C90.8189 159.336 90.0733 158.858 88.3996 157.689L89.3102 156.675Z"/>
</svg>